<svg id="chevron-double-right" xmlns="http://www.w3.org/2000/svg" width="54.916" height="71.475" viewBox="0 0 54.916 71.475">
  <path id="Tracé_682" data-name="Tracé 682" d="M4.232,2.307a2.337,2.337,0,0,1,3.534,0L37.716,35.291a2.949,2.949,0,0,1,0,3.892L7.766,72.168a2.34,2.34,0,0,1-3.534,0,2.953,2.953,0,0,1,0-3.892L32.42,37.237,4.232,6.2a2.949,2.949,0,0,1,0-3.892Z" transform="translate(-3.499 -1.499)" fill-rule="evenodd"/>
  <path id="Tracé_683" data-name="Tracé 683" d="M8.232,2.307a2.337,2.337,0,0,1,3.534,0L41.716,35.291a2.949,2.949,0,0,1,0,3.892L11.766,72.168a2.34,2.34,0,0,1-3.534,0,2.953,2.953,0,0,1,0-3.892L36.42,37.237,8.232,6.2a2.949,2.949,0,0,1,0-3.892Z" transform="translate(12.467 -1.499)" fill-rule="evenodd"/>
</svg>
